<svg xmlns="http://www.w3.org/2000/svg" xmlns:xlink="http://www.w3.org/1999/xlink" version="1.1" width="256" height="256" viewBox="0 0 256 256" xml:space="preserve">

<defs>
</defs>
<g style="stroke: none; stroke-width: 0; stroke-dasharray: none; stroke-linecap: butt; stroke-linejoin: miter; stroke-miterlimit: 10; fill: none; fill-rule: nonzero; opacity: 1;" transform="translate(1.4065934065934016 1.4065934065934016) scale(2.81 2.81)" >
	<path d="M 87 90 H 74.496 c -1.657 0 -3 -1.343 -3 -3 s 1.343 -3 3 -3 H 84 v -9.504 c 0 -1.657 1.343 -3 3 -3 s 3 1.343 3 3 V 87 C 90 88.657 88.657 90 87 90 z" style="stroke: none; stroke-width: 1; stroke-dasharray: none; stroke-linecap: butt; stroke-linejoin: miter; stroke-miterlimit: 10; fill: rgb(0,0,0); fill-rule: nonzero; opacity: 1;" transform=" matrix(1 0 0 1 0 0) " stroke-linecap="round" />
	<path d="M 17.604 20.604 c -0.768 0 -1.536 -0.293 -2.121 -0.879 L 0.879 5.121 c -1.172 -1.171 -1.172 -3.071 0 -4.242 c 1.171 -1.172 3.071 -1.172 4.242 0 l 14.604 14.604 c 1.172 1.171 1.172 3.071 0 4.242 C 19.14 20.311 18.372 20.604 17.604 20.604 z" style="stroke: none; stroke-width: 1; stroke-dasharray: none; stroke-linecap: butt; stroke-linejoin: miter; stroke-miterlimit: 10; fill: rgb(0,0,0); fill-rule: nonzero; opacity: 1;" transform=" matrix(1 0 0 1 0 0) " stroke-linecap="round" />
	<path d="M 87 90 c -0.768 0 -1.535 -0.293 -2.121 -0.879 L 71.565 75.808 c -1.172 -1.171 -1.172 -3.071 0 -4.242 c 1.172 -1.172 3.07 -1.172 4.242 0 l 13.313 13.313 c 1.172 1.171 1.172 3.071 0 4.242 C 88.535 89.707 87.768 90 87 90 z" style="stroke: none; stroke-width: 1; stroke-dasharray: none; stroke-linecap: butt; stroke-linejoin: miter; stroke-miterlimit: 10; fill: rgb(0,0,0); fill-rule: nonzero; opacity: 1;" transform=" matrix(1 0 0 1 0 0) " stroke-linecap="round" />
	<path d="M 45.689 80.213 c -19.036 0 -34.523 -15.487 -34.523 -34.523 s 15.487 -34.523 34.523 -34.523 s 34.523 15.487 34.523 34.523 S 64.726 80.213 45.689 80.213 z M 45.689 17.166 c -15.728 0 -28.523 12.795 -28.523 28.523 c 0 15.728 12.795 28.523 28.523 28.523 c 15.728 0 28.523 -12.796 28.523 -28.523 C 74.213 29.961 61.417 17.166 45.689 17.166 z" style="stroke: none; stroke-width: 1; stroke-dasharray: none; stroke-linecap: butt; stroke-linejoin: miter; stroke-miterlimit: 10; fill: rgb(0,0,0); fill-rule: nonzero; opacity: 1;" transform=" matrix(1 0 0 1 0 0) " stroke-linecap="round" />
	<path d="M 45.442 65.287 c -4.495 0 -8.733 -2.751 -10.403 -7.201 c -0.582 -1.552 0.204 -3.28 1.755 -3.862 c 1.552 -0.586 3.281 0.204 3.863 1.755 c 0.987 2.632 3.93 3.968 6.562 2.983 c 1.275 -0.479 2.288 -1.425 2.852 -2.664 s 0.61 -2.624 0.133 -3.898 c -0.565 -1.508 -1.781 -2.634 -3.337 -3.09 l -0.188 -0.062 l -3.959 -1.451 c -3.334 -1.012 -5.942 -3.452 -7.164 -6.709 c -2.148 -5.73 0.766 -12.14 6.495 -14.288 c 2.775 -1.041 5.789 -0.938 8.489 0.288 c 2.698 1.227 4.758 3.431 5.798 6.207 c 0.582 1.551 -0.204 3.28 -1.755 3.862 c -1.551 0.579 -3.281 -0.203 -3.862 -1.756 c -0.479 -1.275 -1.425 -2.287 -2.664 -2.851 c -1.24 -0.564 -2.624 -0.611 -3.899 -0.132 c -2.632 0.987 -3.97 3.931 -2.983 6.563 c 0.565 1.507 1.781 2.633 3.337 3.09 l 0.187 0.062 l 3.959 1.451 c 3.335 1.011 5.942 3.452 7.164 6.71 c 1.04 2.775 0.938 5.79 -0.289 8.488 s -3.431 4.758 -6.206 5.798 C 48.048 65.06 46.734 65.286 45.442 65.287 z" style="stroke: none; stroke-width: 1; stroke-dasharray: none; stroke-linecap: butt; stroke-linejoin: miter; stroke-miterlimit: 10; fill: rgb(0,0,0); fill-rule: nonzero; opacity: 1;" transform=" matrix(1 0 0 1 0 0) " stroke-linecap="round" />
	<path d="M 45.689 32.103 c -1.657 0 -3 -1.343 -3 -3 v -4.526 c 0 -1.657 1.343 -3 3 -3 c 1.657 0 3 1.343 3 3 v 4.526 C 48.689 30.759 47.347 32.103 45.689 32.103 z" style="stroke: none; stroke-width: 1; stroke-dasharray: none; stroke-linecap: butt; stroke-linejoin: miter; stroke-miterlimit: 10; fill: rgb(0,0,0); fill-rule: nonzero; opacity: 1;" transform=" matrix(1 0 0 1 0 0) " stroke-linecap="round" />
	<path d="M 45.689 69.803 c -1.657 0 -3 -1.343 -3 -3 v -4.526 c 0 -1.657 1.343 -3 3 -3 c 1.657 0 3 1.343 3 3 v 4.526 C 48.689 68.46 47.347 69.803 45.689 69.803 z" style="stroke: none; stroke-width: 1; stroke-dasharray: none; stroke-linecap: butt; stroke-linejoin: miter; stroke-miterlimit: 10; fill: rgb(0,0,0); fill-rule: nonzero; opacity: 1;" transform=" matrix(1 0 0 1 0 0) " stroke-linecap="round" />
</g>
</svg>